<?xml version="1.0" encoding="UTF-8"?> <svg xmlns="http://www.w3.org/2000/svg" xmlns:xlink="http://www.w3.org/1999/xlink" width="244px" height="33px" viewBox="0 0 244 33"> <!-- Generator: Sketch 47 (45396) - http://www.bohemiancoding.com/sketch --> <title>Ресурс 1</title> <desc>Created with Sketch.</desc> <defs></defs> <g id="Page-1" stroke="none" stroke-width="1" fill="none" fill-rule="evenodd"> <g id="Ресурс-1" transform="translate(0.000000, -1.000000)" fill="#FFFFFF"> <polygon id="Shape" points="41.52 33.43 41.38 32.6 23.18 31.34 23.11 29.23 41.25 31.79 41.11 30.95 23.07 27.13 23 24.81 40.97 30.02 40.84 29.2 22.95 22.71 22.89 20.55 40.61 28.28 40.48 27.46 22.84 18.45 22.79 16.47 40.4 26.74 40.27 25.92 22.74 14.37 22.68 12.2 40.09 25 39.96 24.18 22.63 10.11 22.57 7.8 39.85 23.28 39.72 22.46 22.52 5.69 22.46 3.56 39.58 21.61 39.44 20.79 22.41 1.42 2.9 12.63 0 33.44 23.22 33.43"></polygon> <path d="M121.64,5.38 L121.64,5.38 C125.87734,2.50925201 130.881802,0.982821307 136,1 C148.59,1 149.35,8.65 149.35,12.19 L149.35,21.66 C149.35,24.54 149.98,26.66 152.94,26.45 L152.94,33.31 C151.905598,33.7170426 150.80147,33.9174843 149.69,33.9 C146.826574,34.1222313 144.069913,32.7649882 142.5,30.36 C139.393957,32.7594305 135.553344,34.0101912 131.63,33.9 C123.48,33.9 120.43,29.46 120.43,24.82 C120.43,16.11 128.58,13.29 139.94,13.02 C140,9.36 139.04,8.18 135.02,8.18 C131.620873,8.34717262 128.326301,9.40971507 125.47,11.26 L121.64,5.38 Z M140,19.25 C134.32,19.18 130.17,20.94 130.17,24.02 C130.17,25.91 131.9,26.7 133.91,26.7 C135.92,26.7 138.27,25.4 140,24.22 L140,19.25 Z" id="Shape"></path> <path d="M60.88,23 C62.9804162,25.5328519 66.0995462,26.998953 69.39,27 C75.28,27 76.24,22.29 76.39,20.46 L65.95,21.05 L65.95,14 L76.39,14.59 C76.33,12.43 75.21,7.86 69.27,7.86 C66.443503,7.84224922 63.7371195,9.00161029 61.8,11.06 L56.66,5.83 C60.3020917,2.84845681 64.825568,1.15083515 69.53,1 C76.38,1 87,3.75 87,17 C87,29.72 77.55,33.9 69.19,33.9 C63.44,33.9 59.71,32 55.55,28.01 L60.88,23 Z" id="Shape"></path> <polygon id="Shape" points="90.57 8.91 90.57 1.72 116.58 1.72 116.58 8.91 108.28 8.91 108.28 33.18 98.88 33.18 98.88 8.91"></polygon> <path d="M178.31,19.64 C174.09,19.45 174.09,21.14 171.81,25.64 C169.81,29.57 167.38,33.88 161.64,33.88 C160.461339,33.8835353 159.290882,33.6839487 158.18,33.29 L158.18,26.45 C161.36,26.26 161.18,25.2 163.18,22.12 C165.88,17.61 167.88,16.44 169.69,16.17 C167.629886,15.6380454 165.862267,14.3159241 164.77,12.49 C163.39,10.49 162.14,8.71 159.93,8.71 C159.648635,8.69839693 159.366859,8.71852381 159.09,8.77 L159.09,1.65 C160.149828,1.14837231 161.319874,0.924687066 162.49,1 C167.6,1 170.09,4.14 173.06,8.65 C174.59,10.93 175.69,12.97 178.33,12.77 L178.33,1.72 L187.74,1.72 L187.74,12.77 C190.37,12.97 191.47,10.93 192.99,8.65 C196,4.14 198.45,1 203.56,1 C204.723878,0.921405321 205.888288,1.14533041 206.94,1.65 L206.94,8.78 C206.669986,8.72776076 206.394743,8.70762104 206.12,8.72 C203.9,8.72 202.65,10.54 201.27,12.5 C200.187515,14.3305184 198.420736,15.654703 196.36,16.18 C198.15,16.45 200.17,17.62 202.87,22.13 C204.8,25.21 204.67,26.27 207.87,26.46 L207.87,33.32 C206.758718,33.7124112 205.588529,33.9119521 204.41,33.91 C198.67,33.91 196.25,29.6 194.25,25.67 C191.96,21.14 191.96,19.45 187.74,19.67 L187.74,33.18 L178.33,33.18 L178.31,19.64 Z" id="Shape"></path> <polygon id="Shape" points="234.39 6.55 234.39 1.72 243.79 1.72 243.79 33.18 234.39 33.18 234.39 17.16 223.25 28.67 223.25 33.18 213.84 33.18 213.84 1.72 223.25 1.72 223.25 18.13"></polygon> </g> </g> </svg> 